<?xml version="1.0" encoding="UTF-8"?>
<svg xmlns="http://www.w3.org/2000/svg" xmlns:xlink="http://www.w3.org/1999/xlink" width="50px" height="50px" viewBox="0 0 50 50" version="1.1">
<g id="surface1">
<path style=" stroke:none;fill-rule:nonzero;fill:rgb(100%,0%,0%);fill-opacity:1;" d="M 24.40625 38.703125 L 25.570312 38.703125 L 25.570312 39.546875 L 24.40625 39.546875 Z M 24.40625 38.703125 "/>
<path style=" stroke:none;fill-rule:nonzero;fill:rgb(100%,0%,0%);fill-opacity:1;" d="M 25.570312 37.863281 L 26.730469 37.863281 L 26.730469 38.703125 L 25.570312 38.703125 Z M 25.570312 37.863281 "/>
<path style=" stroke:none;fill-rule:nonzero;fill:rgb(100%,0%,0%);fill-opacity:1;" d="M 26.730469 37.019531 L 27.894531 37.019531 L 27.894531 37.863281 L 26.730469 37.863281 Z M 26.730469 37.019531 "/>
<path style=" stroke:none;fill-rule:nonzero;fill:rgb(100%,0%,0%);fill-opacity:1;" d="M 27.894531 36.179688 L 29.054688 36.179688 L 29.054688 37.019531 L 27.894531 37.019531 Z M 27.894531 36.179688 "/>
<path style=" stroke:none;fill-rule:nonzero;fill:rgb(100%,0%,0%);fill-opacity:1;" d="M 23.246094 37.863281 L 24.40625 37.863281 L 24.40625 38.703125 L 23.246094 38.703125 Z M 23.246094 37.863281 "/>
<path style=" stroke:none;fill-rule:nonzero;fill:rgb(100%,0%,0%);fill-opacity:1;" d="M 22.082031 37.019531 L 23.246094 37.019531 L 23.246094 37.863281 L 22.082031 37.863281 Z M 22.082031 37.019531 "/>
<path style=" stroke:none;fill-rule:nonzero;fill:rgb(100%,0%,0%);fill-opacity:1;" d="M 20.917969 36.179688 L 22.082031 36.179688 L 22.082031 37.019531 L 20.917969 37.019531 Z M 20.917969 36.179688 "/>
<path style=" stroke:none;fill-rule:nonzero;fill:rgb(0%,0%,0%);fill-opacity:1;" d="M 16.269531 35.339844 L 20.917969 35.339844 L 20.917969 36.179688 L 16.269531 36.179688 Z M 16.269531 35.339844 "/>
<path style=" stroke:none;fill-rule:nonzero;fill:rgb(0%,0%,0%);fill-opacity:1;" d="M 16.269531 34.496094 L 17.433594 34.496094 L 17.433594 35.339844 L 16.269531 35.339844 Z M 16.269531 34.496094 "/>
<path style=" stroke:none;fill-rule:nonzero;fill:rgb(0%,0%,0%);fill-opacity:1;" d="M 16.269531 33.65625 L 17.433594 33.65625 L 17.433594 34.496094 L 16.269531 34.496094 Z M 16.269531 33.65625 "/>
<path style=" stroke:none;fill-rule:nonzero;fill:rgb(0%,0%,0%);fill-opacity:1;" d="M 17.433594 32.8125 L 18.59375 32.8125 L 18.59375 33.65625 L 17.433594 33.65625 Z M 17.433594 32.8125 "/>
<path style=" stroke:none;fill-rule:nonzero;fill:rgb(0%,0%,0%);fill-opacity:1;" d="M 18.59375 31.972656 L 19.757812 31.972656 L 19.757812 32.8125 L 18.59375 32.8125 Z M 18.59375 31.972656 "/>
<path style=" stroke:none;fill-rule:nonzero;fill:rgb(0%,0%,0%);fill-opacity:1;" d="M 19.757812 31.132812 L 20.917969 31.132812 L 20.917969 31.972656 L 19.757812 31.972656 Z M 19.757812 31.132812 "/>
<path style=" stroke:none;fill-rule:nonzero;fill:rgb(0%,0%,0%);fill-opacity:1;" d="M 20.917969 30.289062 L 22.082031 30.289062 L 22.082031 35.339844 L 20.917969 35.339844 Z M 20.917969 30.289062 "/>
<path style=" stroke:none;fill-rule:nonzero;fill:rgb(0%,0%,0%);fill-opacity:1;" d="M 22.082031 33.65625 L 23.246094 33.65625 L 23.246094 34.496094 L 22.082031 34.496094 Z M 22.082031 33.65625 "/>
<path style=" stroke:none;fill-rule:nonzero;fill:rgb(0%,0%,0%);fill-opacity:1;" d="M 22.082031 31.972656 L 23.246094 31.972656 L 23.246094 32.8125 L 22.082031 32.8125 Z M 22.082031 31.972656 "/>
<path style=" stroke:none;fill-rule:nonzero;fill:rgb(0%,0%,0%);fill-opacity:1;" d="M 24.40625 31.132812 L 25.570312 31.132812 L 25.570312 36.179688 L 24.40625 36.179688 Z M 24.40625 31.132812 "/>
<path style=" stroke:none;fill-rule:nonzero;fill:rgb(0%,0%,0%);fill-opacity:1;" d="M 23.246094 32.8125 L 24.40625 32.8125 L 24.40625 33.65625 L 23.246094 33.65625 Z M 23.246094 32.8125 "/>
<path style=" stroke:none;fill-rule:nonzero;fill:rgb(0%,0%,0%);fill-opacity:1;" d="M 25.570312 32.8125 L 26.730469 32.8125 L 26.730469 33.65625 L 25.570312 33.65625 Z M 25.570312 32.8125 "/>
<path style=" stroke:none;fill-rule:nonzero;fill:rgb(0%,0%,0%);fill-opacity:1;" d="M 23.246094 34.496094 L 24.40625 34.496094 L 24.40625 35.339844 L 23.246094 35.339844 Z M 23.246094 34.496094 "/>
<path style=" stroke:none;fill-rule:nonzero;fill:rgb(0%,0%,0%);fill-opacity:1;" d="M 25.570312 34.496094 L 26.730469 34.496094 L 26.730469 35.339844 L 25.570312 35.339844 Z M 25.570312 34.496094 "/>
<path style=" stroke:none;fill-rule:nonzero;fill:rgb(0%,0%,0%);fill-opacity:1;" d="M 26.730469 33.65625 L 27.894531 33.65625 L 27.894531 34.496094 L 26.730469 34.496094 Z M 26.730469 33.65625 "/>
<path style=" stroke:none;fill-rule:nonzero;fill:rgb(0%,0%,0%);fill-opacity:1;" d="M 27.894531 30.289062 L 29.054688 30.289062 L 29.054688 35.339844 L 27.894531 35.339844 Z M 27.894531 30.289062 "/>
<path style=" stroke:none;fill-rule:nonzero;fill:rgb(0%,0%,0%);fill-opacity:1;" d="M 29.054688 35.339844 L 33.703125 35.339844 L 33.703125 36.179688 L 29.054688 36.179688 Z M 29.054688 35.339844 "/>
<path style=" stroke:none;fill-rule:nonzero;fill:rgb(0%,0%,0%);fill-opacity:1;" d="M 32.542969 33.65625 L 33.703125 33.65625 L 33.703125 35.339844 L 32.542969 35.339844 Z M 32.542969 33.65625 "/>
<path style=" stroke:none;fill-rule:nonzero;fill:rgb(0%,0%,0%);fill-opacity:1;" d="M 31.378906 32.8125 L 32.542969 32.8125 L 32.542969 33.65625 L 31.378906 33.65625 Z M 31.378906 32.8125 "/>
<path style=" stroke:none;fill-rule:nonzero;fill:rgb(0%,0%,0%);fill-opacity:1;" d="M 30.21875 31.972656 L 31.378906 31.972656 L 31.378906 32.8125 L 30.21875 32.8125 Z M 30.21875 31.972656 "/>
<path style=" stroke:none;fill-rule:nonzero;fill:rgb(0%,0%,0%);fill-opacity:1;" d="M 29.054688 31.132812 L 30.21875 31.132812 L 30.21875 31.972656 L 29.054688 31.972656 Z M 29.054688 31.132812 "/>
<path style=" stroke:none;fill-rule:nonzero;fill:rgb(0%,0%,0%);fill-opacity:1;" d="M 19.757812 27.765625 L 20.917969 27.765625 L 20.917969 30.289062 L 19.757812 30.289062 Z M 19.757812 27.765625 "/>
<path style=" stroke:none;fill-rule:nonzero;fill:rgb(0%,0%,0%);fill-opacity:1;" d="M 29.054688 27.765625 L 30.21875 27.765625 L 30.21875 30.289062 L 29.054688 30.289062 Z M 29.054688 27.765625 "/>
<path style=" stroke:none;fill-rule:nonzero;fill:rgb(0%,0%,0%);fill-opacity:1;" d="M 30.21875 19.351562 L 31.378906 19.351562 L 31.378906 27.765625 L 30.21875 27.765625 Z M 30.21875 19.351562 "/>
<path style=" stroke:none;fill-rule:nonzero;fill:rgb(0%,0%,0%);fill-opacity:1;" d="M 19.757812 23.558594 L 20.917969 23.558594 L 20.917969 24.398438 L 19.757812 24.398438 Z M 19.757812 23.558594 "/>
<path style=" stroke:none;fill-rule:nonzero;fill:rgb(0%,0%,0%);fill-opacity:1;" d="M 20.917969 24.398438 L 22.082031 24.398438 L 22.082031 25.242188 L 20.917969 25.242188 Z M 20.917969 24.398438 "/>
<path style=" stroke:none;fill-rule:nonzero;fill:rgb(0%,0%,0%);fill-opacity:1;" d="M 22.082031 24.398438 L 23.246094 24.398438 L 23.246094 25.242188 L 22.082031 25.242188 Z M 22.082031 24.398438 "/>
<path style=" stroke:none;fill-rule:nonzero;fill:rgb(0%,0%,0%);fill-opacity:1;" d="M 18.59375 19.351562 L 19.757812 19.351562 L 19.757812 27.765625 L 18.59375 27.765625 Z M 18.59375 19.351562 "/>
<path style=" stroke:none;fill-rule:nonzero;fill:rgb(0%,0%,0%);fill-opacity:1;" d="M 23.246094 25.242188 L 24.40625 25.242188 L 24.40625 26.082031 L 23.246094 26.082031 Z M 23.246094 25.242188 "/>
<path style=" stroke:none;fill-rule:nonzero;fill:rgb(0%,0%,0%);fill-opacity:1;" d="M 24.40625 25.242188 L 25.570312 25.242188 L 25.570312 26.082031 L 24.40625 26.082031 Z M 24.40625 25.242188 "/>
<path style=" stroke:none;fill-rule:nonzero;fill:rgb(0%,0%,0%);fill-opacity:1;" d="M 25.570312 25.242188 L 26.730469 25.242188 L 26.730469 26.082031 L 25.570312 26.082031 Z M 25.570312 25.242188 "/>
<path style=" stroke:none;fill-rule:nonzero;fill:rgb(0%,0%,0%);fill-opacity:1;" d="M 26.730469 24.398438 L 27.894531 24.398438 L 27.894531 25.242188 L 26.730469 25.242188 Z M 26.730469 24.398438 "/>
<path style=" stroke:none;fill-rule:nonzero;fill:rgb(0%,0%,0%);fill-opacity:1;" d="M 27.894531 24.398438 L 29.054688 24.398438 L 29.054688 25.242188 L 27.894531 25.242188 Z M 27.894531 24.398438 "/>
<path style=" stroke:none;fill-rule:nonzero;fill:rgb(0%,0%,0%);fill-opacity:1;" d="M 29.054688 23.558594 L 30.21875 23.558594 L 30.21875 24.398438 L 29.054688 24.398438 Z M 29.054688 23.558594 "/>
<path style=" stroke:none;fill-rule:nonzero;fill:rgb(0%,0%,0%);fill-opacity:1;" d="M 19.757812 21.035156 L 20.917969 21.035156 L 20.917969 21.875 L 19.757812 21.875 Z M 19.757812 21.035156 "/>
<path style=" stroke:none;fill-rule:nonzero;fill:rgb(0%,0%,0%);fill-opacity:1;" d="M 20.917969 21.875 L 22.082031 21.875 L 22.082031 22.71875 L 20.917969 22.71875 Z M 20.917969 21.875 "/>
<path style=" stroke:none;fill-rule:nonzero;fill:rgb(0%,0%,0%);fill-opacity:1;" d="M 22.082031 21.875 L 23.246094 21.875 L 23.246094 22.71875 L 22.082031 22.71875 Z M 22.082031 21.875 "/>
<path style=" stroke:none;fill-rule:nonzero;fill:rgb(0%,0%,0%);fill-opacity:1;" d="M 23.246094 22.71875 L 24.40625 22.71875 L 24.40625 23.558594 L 23.246094 23.558594 Z M 23.246094 22.71875 "/>
<path style=" stroke:none;fill-rule:nonzero;fill:rgb(0%,0%,0%);fill-opacity:1;" d="M 24.40625 22.71875 L 25.570312 22.71875 L 25.570312 23.558594 L 24.40625 23.558594 Z M 24.40625 22.71875 "/>
<path style=" stroke:none;fill-rule:nonzero;fill:rgb(0%,0%,0%);fill-opacity:1;" d="M 25.570312 22.71875 L 26.730469 22.71875 L 26.730469 23.558594 L 25.570312 23.558594 Z M 25.570312 22.71875 "/>
<path style=" stroke:none;fill-rule:nonzero;fill:rgb(0%,0%,0%);fill-opacity:1;" d="M 26.730469 21.875 L 27.894531 21.875 L 27.894531 22.71875 L 26.730469 22.71875 Z M 26.730469 21.875 "/>
<path style=" stroke:none;fill-rule:nonzero;fill:rgb(0%,0%,0%);fill-opacity:1;" d="M 27.894531 21.875 L 29.054688 21.875 L 29.054688 22.71875 L 27.894531 22.71875 Z M 27.894531 21.875 "/>
<path style=" stroke:none;fill-rule:nonzero;fill:rgb(0%,0%,0%);fill-opacity:1;" d="M 29.054688 21.035156 L 30.21875 21.035156 L 30.21875 21.875 L 29.054688 21.875 Z M 29.054688 21.035156 "/>
<path style=" stroke:none;fill-rule:nonzero;fill:rgb(0%,0%,0%);fill-opacity:1;" d="M 19.757812 17.667969 L 20.917969 17.667969 L 20.917969 19.351562 L 19.757812 19.351562 Z M 19.757812 17.667969 "/>
<path style=" stroke:none;fill-rule:nonzero;fill:rgb(0%,0%,0%);fill-opacity:1;" d="M 29.054688 17.667969 L 30.21875 17.667969 L 30.21875 19.351562 L 29.054688 19.351562 Z M 29.054688 17.667969 "/>
<path style=" stroke:none;fill-rule:nonzero;fill:rgb(0%,0%,0%);fill-opacity:1;" d="M 27.894531 16.828125 L 29.054688 16.828125 L 29.054688 17.667969 L 27.894531 17.667969 Z M 27.894531 16.828125 "/>
<path style=" stroke:none;fill-rule:nonzero;fill:rgb(0%,0%,0%);fill-opacity:1;" d="M 26.730469 15.988281 L 27.894531 15.988281 L 27.894531 16.828125 L 26.730469 16.828125 Z M 26.730469 15.988281 "/>
<path style=" stroke:none;fill-rule:nonzero;fill:rgb(0%,0%,0%);fill-opacity:1;" d="M 25.570312 15.144531 L 26.730469 15.144531 L 26.730469 15.988281 L 25.570312 15.988281 Z M 25.570312 15.144531 "/>
<path style=" stroke:none;fill-rule:nonzero;fill:rgb(0%,0%,0%);fill-opacity:1;" d="M 24.40625 14.304688 L 25.570312 14.304688 L 25.570312 15.144531 L 24.40625 15.144531 Z M 24.40625 14.304688 "/>
<path style=" stroke:none;fill-rule:nonzero;fill:rgb(0%,0%,0%);fill-opacity:1;" d="M 23.246094 15.144531 L 24.40625 15.144531 L 24.40625 15.988281 L 23.246094 15.988281 Z M 23.246094 15.144531 "/>
<path style=" stroke:none;fill-rule:nonzero;fill:rgb(0%,0%,0%);fill-opacity:1;" d="M 22.082031 15.988281 L 23.246094 15.988281 L 23.246094 16.828125 L 22.082031 16.828125 Z M 22.082031 15.988281 "/>
<path style=" stroke:none;fill-rule:nonzero;fill:rgb(0%,0%,0%);fill-opacity:1;" d="M 20.917969 16.828125 L 22.082031 16.828125 L 22.082031 17.667969 L 20.917969 17.667969 Z M 20.917969 16.828125 "/>
<path style=" stroke:none;fill-rule:nonzero;fill:rgb(100%,100%,0%);fill-opacity:1;" d="M 25.570312 35.339844 L 26.730469 35.339844 L 26.730469 36.179688 L 25.570312 36.179688 Z M 25.570312 35.339844 "/>
<path style=" stroke:none;fill-rule:nonzero;fill:rgb(100%,100%,0%);fill-opacity:1;" d="M 24.40625 36.179688 L 25.570312 36.179688 L 25.570312 37.019531 L 24.40625 37.019531 Z M 24.40625 36.179688 "/>
<path style=" stroke:none;fill-rule:nonzero;fill:rgb(100%,91.764706%,0%);fill-opacity:1;" d="M 23.246094 35.339844 L 24.40625 35.339844 L 24.40625 36.179688 L 23.246094 36.179688 Z M 23.246094 35.339844 "/>
<path style=" stroke:none;fill-rule:nonzero;fill:rgb(100%,36.470589%,0%);fill-opacity:1;" d="M 20.917969 35.339844 L 22.082031 35.339844 L 22.082031 36.179688 L 20.917969 36.179688 Z M 20.917969 35.339844 "/>
<path style=" stroke:none;fill-rule:nonzero;fill:rgb(100%,36.470589%,0%);fill-opacity:1;" d="M 22.082031 36.179688 L 23.246094 36.179688 L 23.246094 37.019531 L 22.082031 37.019531 Z M 22.082031 36.179688 "/>
<path style=" stroke:none;fill-rule:nonzero;fill:rgb(100%,36.470589%,0%);fill-opacity:1;" d="M 23.246094 37.019531 L 24.40625 37.019531 L 24.40625 37.863281 L 23.246094 37.863281 Z M 23.246094 37.019531 "/>
<path style=" stroke:none;fill-rule:nonzero;fill:rgb(100%,36.470589%,0%);fill-opacity:1;" d="M 24.40625 37.863281 L 25.570312 37.863281 L 25.570312 38.703125 L 24.40625 38.703125 Z M 24.40625 37.863281 "/>
<path style=" stroke:none;fill-rule:nonzero;fill:rgb(100%,36.470589%,0%);fill-opacity:1;" d="M 25.570312 37.019531 L 26.730469 37.019531 L 26.730469 37.863281 L 25.570312 37.863281 Z M 25.570312 37.019531 "/>
<path style=" stroke:none;fill-rule:nonzero;fill:rgb(100%,36.470589%,0%);fill-opacity:1;" d="M 26.730469 36.179688 L 27.894531 36.179688 L 27.894531 37.019531 L 26.730469 37.019531 Z M 26.730469 36.179688 "/>
<path style=" stroke:none;fill-rule:nonzero;fill:rgb(100%,36.470589%,0%);fill-opacity:1;" d="M 27.894531 35.339844 L 29.054688 35.339844 L 29.054688 36.179688 L 27.894531 36.179688 Z M 27.894531 35.339844 "/>
<path style=" stroke:none;fill-rule:nonzero;fill:rgb(100%,36.470589%,0%);fill-opacity:1;" d="M 22.082031 34.496094 L 23.246094 34.496094 L 23.246094 35.339844 L 22.082031 35.339844 Z M 22.082031 34.496094 "/>
<path style=" stroke:none;fill-rule:nonzero;fill:rgb(100%,36.470589%,0%);fill-opacity:1;" d="M 22.082031 35.339844 L 23.246094 35.339844 L 23.246094 36.179688 L 22.082031 36.179688 Z M 22.082031 35.339844 "/>
<path style=" stroke:none;fill-rule:nonzero;fill:rgb(100%,36.470589%,0%);fill-opacity:1;" d="M 23.246094 36.179688 L 24.40625 36.179688 L 24.40625 37.019531 L 23.246094 37.019531 Z M 23.246094 36.179688 "/>
<path style=" stroke:none;fill-rule:nonzero;fill:rgb(100%,36.470589%,0%);fill-opacity:1;" d="M 24.40625 37.019531 L 25.570312 37.019531 L 25.570312 37.863281 L 24.40625 37.863281 Z M 24.40625 37.019531 "/>
<path style=" stroke:none;fill-rule:nonzero;fill:rgb(100%,36.470589%,0%);fill-opacity:1;" d="M 25.570312 36.179688 L 26.730469 36.179688 L 26.730469 37.019531 L 25.570312 37.019531 Z M 25.570312 36.179688 "/>
<path style=" stroke:none;fill-rule:nonzero;fill:rgb(100%,36.470589%,0%);fill-opacity:1;" d="M 26.730469 35.339844 L 27.894531 35.339844 L 27.894531 36.179688 L 26.730469 36.179688 Z M 26.730469 35.339844 "/>
<path style=" stroke:none;fill-rule:nonzero;fill:rgb(100%,36.470589%,0%);fill-opacity:1;" d="M 26.730469 34.496094 L 27.894531 34.496094 L 27.894531 35.339844 L 26.730469 35.339844 Z M 26.730469 34.496094 "/>
<path style=" stroke:none;fill-rule:nonzero;fill:rgb(21.568628%,32.549021%,21.568628%);fill-opacity:1;" d="M 17.433594 33.65625 L 18.59375 33.65625 L 18.59375 34.496094 L 17.433594 34.496094 Z M 17.433594 33.65625 "/>
<path style=" stroke:none;fill-rule:nonzero;fill:rgb(21.568628%,32.549021%,21.568628%);fill-opacity:1;" d="M 18.59375 32.8125 L 19.757812 32.8125 L 19.757812 33.65625 L 18.59375 33.65625 Z M 18.59375 32.8125 "/>
<path style=" stroke:none;fill-rule:nonzero;fill:rgb(21.568628%,32.549021%,21.568628%);fill-opacity:1;" d="M 19.757812 31.972656 L 20.917969 31.972656 L 20.917969 32.8125 L 19.757812 32.8125 Z M 19.757812 31.972656 "/>
<path style=" stroke:none;fill-rule:nonzero;fill:rgb(21.568628%,32.549021%,21.568628%);fill-opacity:1;" d="M 29.054688 31.972656 L 30.21875 31.972656 L 30.21875 32.8125 L 29.054688 32.8125 Z M 29.054688 31.972656 "/>
<path style=" stroke:none;fill-rule:nonzero;fill:rgb(21.568628%,32.549021%,21.568628%);fill-opacity:1;" d="M 30.21875 32.8125 L 31.378906 32.8125 L 31.378906 33.65625 L 30.21875 33.65625 Z M 30.21875 32.8125 "/>
<path style=" stroke:none;fill-rule:nonzero;fill:rgb(21.568628%,32.549021%,21.568628%);fill-opacity:1;" d="M 31.378906 33.65625 L 32.542969 33.65625 L 32.542969 34.496094 L 31.378906 34.496094 Z M 31.378906 33.65625 "/>
<path style=" stroke:none;fill-rule:nonzero;fill:rgb(21.568628%,32.549021%,21.568628%);fill-opacity:1;" d="M 23.246094 26.082031 L 24.40625 26.082031 L 24.40625 32.8125 L 23.246094 32.8125 Z M 23.246094 26.082031 "/>
<path style=" stroke:none;fill-rule:nonzero;fill:rgb(21.568628%,32.549021%,21.568628%);fill-opacity:1;" d="M 24.40625 26.082031 L 25.570312 26.082031 L 25.570312 31.132812 L 24.40625 31.132812 Z M 24.40625 26.082031 "/>
<path style=" stroke:none;fill-rule:nonzero;fill:rgb(21.568628%,32.549021%,21.568628%);fill-opacity:1;" d="M 25.570312 26.082031 L 26.730469 26.082031 L 26.730469 32.8125 L 25.570312 32.8125 Z M 25.570312 26.082031 "/>
<path style=" stroke:none;fill-rule:nonzero;fill:rgb(0%,35.294119%,15.686275%);fill-opacity:1;" d="M 29.054688 34.496094 L 30.21875 34.496094 L 30.21875 35.339844 L 29.054688 35.339844 Z M 29.054688 34.496094 "/>
<path style=" stroke:none;fill-rule:nonzero;fill:rgb(0%,35.294119%,15.686275%);fill-opacity:1;" d="M 29.054688 33.65625 L 30.21875 33.65625 L 30.21875 34.496094 L 29.054688 34.496094 Z M 29.054688 33.65625 "/>
<path style=" stroke:none;fill-rule:nonzero;fill:rgb(0%,35.294119%,15.686275%);fill-opacity:1;" d="M 29.054688 32.8125 L 30.21875 32.8125 L 30.21875 33.65625 L 29.054688 33.65625 Z M 29.054688 32.8125 "/>
<path style=" stroke:none;fill-rule:nonzero;fill:rgb(0%,35.294119%,15.686275%);fill-opacity:1;" d="M 30.21875 33.65625 L 31.378906 33.65625 L 31.378906 34.496094 L 30.21875 34.496094 Z M 30.21875 33.65625 "/>
<path style=" stroke:none;fill-rule:nonzero;fill:rgb(0%,35.294119%,15.686275%);fill-opacity:1;" d="M 30.21875 34.496094 L 31.378906 34.496094 L 31.378906 35.339844 L 30.21875 35.339844 Z M 30.21875 34.496094 "/>
<path style=" stroke:none;fill-rule:nonzero;fill:rgb(0%,35.294119%,15.686275%);fill-opacity:1;" d="M 31.378906 34.496094 L 32.542969 34.496094 L 32.542969 35.339844 L 31.378906 35.339844 Z M 31.378906 34.496094 "/>
<path style=" stroke:none;fill-rule:nonzero;fill:rgb(0%,35.294119%,15.686275%);fill-opacity:1;" d="M 19.757812 32.8125 L 20.917969 32.8125 L 20.917969 33.65625 L 19.757812 33.65625 Z M 19.757812 32.8125 "/>
<path style=" stroke:none;fill-rule:nonzero;fill:rgb(0%,35.294119%,15.686275%);fill-opacity:1;" d="M 19.757812 33.980469 L 20.917969 33.980469 L 20.917969 34.824219 L 19.757812 34.824219 Z M 19.757812 33.980469 "/>
<path style=" stroke:none;fill-rule:nonzero;fill:rgb(0%,35.294119%,15.686275%);fill-opacity:1;" d="M 18.59375 34.496094 L 19.757812 34.496094 L 19.757812 35.339844 L 18.59375 35.339844 Z M 18.59375 34.496094 "/>
<path style=" stroke:none;fill-rule:nonzero;fill:rgb(0%,35.294119%,15.686275%);fill-opacity:1;" d="M 17.433594 34.496094 L 18.59375 34.496094 L 18.59375 35.339844 L 17.433594 35.339844 Z M 17.433594 34.496094 "/>
<path style=" stroke:none;fill-rule:nonzero;fill:rgb(0%,35.294119%,15.686275%);fill-opacity:1;" d="M 18.59375 33.65625 L 19.757812 33.65625 L 19.757812 34.496094 L 18.59375 34.496094 Z M 18.59375 33.65625 "/>
<path style=" stroke:none;fill-rule:nonzero;fill:rgb(0%,35.294119%,15.686275%);fill-opacity:1;" d="M 19.757812 33.65625 L 20.917969 33.65625 L 20.917969 35.339844 L 19.757812 35.339844 Z M 19.757812 33.65625 "/>
<path style=" stroke:none;fill-rule:nonzero;fill:rgb(0%,35.294119%,15.686275%);fill-opacity:1;" d="M 26.730469 25.242188 L 27.894531 25.242188 L 27.894531 32.8125 L 26.730469 32.8125 Z M 26.730469 25.242188 "/>
<path style=" stroke:none;fill-rule:nonzero;fill:rgb(0%,35.294119%,15.686275%);fill-opacity:1;" d="M 27.894531 25.242188 L 29.054688 25.242188 L 29.054688 30.289062 L 27.894531 30.289062 Z M 27.894531 25.242188 "/>
<path style=" stroke:none;fill-rule:nonzero;fill:rgb(0%,35.294119%,15.686275%);fill-opacity:1;" d="M 22.082031 25.242188 L 23.246094 25.242188 L 23.246094 31.972656 L 22.082031 31.972656 Z M 22.082031 25.242188 "/>
<path style=" stroke:none;fill-rule:nonzero;fill:rgb(0%,35.294119%,15.686275%);fill-opacity:1;" d="M 20.917969 25.242188 L 22.082031 25.242188 L 22.082031 30.289062 L 20.917969 30.289062 Z M 20.917969 25.242188 "/>
<path style=" stroke:none;fill-rule:nonzero;fill:rgb(100%,100%,41.960785%);fill-opacity:1;" d="M 29.054688 24.398438 L 30.21875 24.398438 L 30.21875 27.765625 L 29.054688 27.765625 Z M 29.054688 24.398438 "/>
<path style=" stroke:none;fill-rule:nonzero;fill:rgb(100%,100%,41.960785%);fill-opacity:1;" d="M 19.757812 24.398438 L 20.917969 24.398438 L 20.917969 27.765625 L 19.757812 27.765625 Z M 19.757812 24.398438 "/>
<path style=" stroke:none;fill-rule:nonzero;fill:rgb(100%,100%,41.960785%);fill-opacity:1;" d="M 29.054688 21.875 L 30.21875 21.875 L 30.21875 23.558594 L 29.054688 23.558594 Z M 29.054688 21.875 "/>
<path style=" stroke:none;fill-rule:nonzero;fill:rgb(100%,100%,41.960785%);fill-opacity:1;" d="M 19.757812 21.875 L 20.917969 21.875 L 20.917969 23.558594 L 19.757812 23.558594 Z M 19.757812 21.875 "/>
<path style=" stroke:none;fill-rule:nonzero;fill:rgb(100%,90.196079%,7.450981%);fill-opacity:1;" d="M 26.730469 22.71875 L 29.054688 22.71875 L 29.054688 24.398438 L 26.730469 24.398438 Z M 26.730469 22.71875 "/>
<path style=" stroke:none;fill-rule:nonzero;fill:rgb(100%,90.196079%,7.450981%);fill-opacity:1;" d="M 20.917969 22.71875 L 23.246094 22.71875 L 23.246094 24.398438 L 20.917969 24.398438 Z M 20.917969 22.71875 "/>
<path style=" stroke:none;fill-rule:nonzero;fill:rgb(100%,74.901962%,8.235294%);fill-opacity:1;" d="M 23.246094 23.558594 L 26.730469 23.558594 L 26.730469 25.242188 L 23.246094 25.242188 Z M 23.246094 23.558594 "/>
<path style=" stroke:none;fill-rule:nonzero;fill:rgb(100%,0%,0%);fill-opacity:1;" d="M 25.570312 33.65625 L 26.730469 33.65625 L 26.730469 34.496094 L 25.570312 34.496094 Z M 25.570312 33.65625 "/>
<path style=" stroke:none;fill-rule:nonzero;fill:rgb(100%,0%,0%);fill-opacity:1;" d="M 26.730469 32.8125 L 27.894531 32.8125 L 27.894531 33.65625 L 26.730469 33.65625 Z M 26.730469 32.8125 "/>
<path style=" stroke:none;fill-rule:nonzero;fill:rgb(100%,0%,0%);fill-opacity:1;" d="M 23.246094 33.65625 L 24.40625 33.65625 L 24.40625 34.496094 L 23.246094 34.496094 Z M 23.246094 33.65625 "/>
<path style=" stroke:none;fill-rule:nonzero;fill:rgb(100%,0%,0%);fill-opacity:1;" d="M 22.082031 32.8125 L 23.246094 32.8125 L 23.246094 33.65625 L 22.082031 33.65625 Z M 22.082031 32.8125 "/>
<path style=" stroke:none;fill-rule:nonzero;fill:rgb(100%,0%,0%);fill-opacity:1;" d="M 22.082031 16.828125 L 23.246094 16.828125 L 23.246094 21.875 L 22.082031 21.875 Z M 22.082031 16.828125 "/>
<path style=" stroke:none;fill-rule:nonzero;fill:rgb(100%,0%,0%);fill-opacity:1;" d="M 20.917969 17.667969 L 22.082031 17.667969 L 22.082031 21.875 L 20.917969 21.875 Z M 20.917969 17.667969 "/>
<path style=" stroke:none;fill-rule:nonzero;fill:rgb(100%,0%,0%);fill-opacity:1;" d="M 19.757812 19.351562 L 20.917969 19.351562 L 20.917969 21.035156 L 19.757812 21.035156 Z M 19.757812 19.351562 "/>
<path style=" stroke:none;fill-rule:nonzero;fill:rgb(100%,0%,0%);fill-opacity:1;" d="M 29.054688 19.351562 L 30.21875 19.351562 L 30.21875 21.035156 L 29.054688 21.035156 Z M 29.054688 19.351562 "/>
<path style=" stroke:none;fill-rule:nonzero;fill:rgb(100%,0%,0%);fill-opacity:1;" d="M 27.894531 17.667969 L 29.054688 17.667969 L 29.054688 21.875 L 27.894531 21.875 Z M 27.894531 17.667969 "/>
<path style=" stroke:none;fill-rule:nonzero;fill:rgb(100%,0%,0%);fill-opacity:1;" d="M 26.730469 16.828125 L 27.894531 16.828125 L 27.894531 21.875 L 26.730469 21.875 Z M 26.730469 16.828125 "/>
<path style=" stroke:none;fill-rule:nonzero;fill:rgb(83.137256%,0%,0%);fill-opacity:1;" d="M 24.40625 15.144531 L 25.570312 15.144531 L 25.570312 15.988281 L 24.40625 15.988281 Z M 24.40625 15.144531 "/>
<path style=" stroke:none;fill-rule:nonzero;fill:rgb(83.137256%,0%,0%);fill-opacity:1;" d="M 23.246094 15.988281 L 26.730469 15.988281 L 26.730469 22.71875 L 23.246094 22.71875 Z M 23.246094 15.988281 "/>
</g>
</svg>
