<?xml version="1.0" encoding="UTF-8"?>
<svg xmlns="http://www.w3.org/2000/svg" xmlns:xlink="http://www.w3.org/1999/xlink" width="14px" height="14px" viewBox="0 0 14 14" version="1.1">
<g id="surface1">
<path style=" stroke:none;fill-rule:nonzero;fill:rgb(0%,0%,0%);fill-opacity:1;" d="M 4.410156 12.347656 L 5.292969 12.347656 L 5.292969 13.226562 L 4.410156 13.226562 Z M 4.410156 12.347656 "/>
<path style=" stroke:none;fill-rule:nonzero;fill:rgb(0%,0%,0%);fill-opacity:1;" d="M 5.292969 12.347656 L 6.171875 12.347656 L 6.171875 13.226562 L 5.292969 13.226562 Z M 5.292969 12.347656 "/>
<path style=" stroke:none;fill-rule:nonzero;fill:rgb(0%,0%,0%);fill-opacity:1;" d="M 7.054688 12.347656 L 7.9375 12.347656 L 7.9375 13.226562 L 7.054688 13.226562 Z M 7.054688 12.347656 "/>
<path style=" stroke:none;fill-rule:nonzero;fill:rgb(0%,0%,0%);fill-opacity:1;" d="M 7.9375 11.464844 L 8.820312 11.464844 L 8.820312 12.347656 L 7.9375 12.347656 Z M 7.9375 11.464844 "/>
<path style=" stroke:none;fill-rule:nonzero;fill:rgb(0%,0%,0%);fill-opacity:1;" d="M 8.820312 11.464844 L 9.699219 11.464844 L 9.699219 12.347656 L 8.820312 12.347656 Z M 8.820312 11.464844 "/>
<path style=" stroke:none;fill-rule:nonzero;fill:rgb(0%,0%,0%);fill-opacity:1;" d="M 6.171875 12.347656 L 7.054688 12.347656 L 7.054688 13.226562 L 6.171875 13.226562 Z M 6.171875 12.347656 "/>
<path style=" stroke:none;fill-rule:nonzero;fill:rgb(0%,0%,0%);fill-opacity:1;" d="M 9.699219 10.582031 L 10.582031 10.582031 L 10.582031 11.464844 L 9.699219 11.464844 Z M 9.699219 10.582031 "/>
<path style=" stroke:none;fill-rule:nonzero;fill:rgb(0%,0%,0%);fill-opacity:1;" d="M 10.582031 9.699219 L 11.464844 9.699219 L 11.464844 10.582031 L 10.582031 10.582031 Z M 10.582031 9.699219 "/>
<path style=" stroke:none;fill-rule:nonzero;fill:rgb(0%,0%,0%);fill-opacity:1;" d="M 10.582031 8.820312 L 11.464844 8.820312 L 11.464844 9.699219 L 10.582031 9.699219 Z M 10.582031 8.820312 "/>
<path style=" stroke:none;fill-rule:nonzero;fill:rgb(0%,0%,0%);fill-opacity:1;" d="M 11.464844 7.9375 L 12.347656 7.9375 L 12.347656 8.820312 L 11.464844 8.820312 Z M 11.464844 7.9375 "/>
<path style=" stroke:none;fill-rule:nonzero;fill:rgb(0%,0%,0%);fill-opacity:1;" d="M 10.582031 4.410156 L 11.464844 4.410156 L 11.464844 5.292969 L 10.582031 5.292969 Z M 10.582031 4.410156 "/>
<path style=" stroke:none;fill-rule:nonzero;fill:rgb(0%,0%,0%);fill-opacity:1;" d="M 7.9375 1.765625 L 8.820312 1.765625 L 8.820312 2.644531 L 7.9375 2.644531 Z M 7.9375 1.765625 "/>
<path style=" stroke:none;fill-rule:nonzero;fill:rgb(0%,0%,0%);fill-opacity:1;" d="M 8.820312 1.765625 L 9.699219 1.765625 L 9.699219 2.644531 L 8.820312 2.644531 Z M 8.820312 1.765625 "/>
<path style=" stroke:none;fill-rule:nonzero;fill:rgb(0%,0%,0%);fill-opacity:1;" d="M 9.699219 2.644531 L 10.582031 2.644531 L 10.582031 3.527344 L 9.699219 3.527344 Z M 9.699219 2.644531 "/>
<path style=" stroke:none;fill-rule:nonzero;fill:rgb(0%,0%,0%);fill-opacity:1;" d="M 10.582031 3.527344 L 11.464844 3.527344 L 11.464844 4.410156 L 10.582031 4.410156 Z M 10.582031 3.527344 "/>
<path style=" stroke:none;fill-rule:nonzero;fill:rgb(0%,0%,0%);fill-opacity:1;" d="M 11.464844 7.054688 L 12.347656 7.054688 L 12.347656 7.9375 L 11.464844 7.9375 Z M 11.464844 7.054688 "/>
<path style=" stroke:none;fill-rule:nonzero;fill:rgb(0%,0%,0%);fill-opacity:1;" d="M 11.464844 6.171875 L 12.347656 6.171875 L 12.347656 7.054688 L 11.464844 7.054688 Z M 11.464844 6.171875 "/>
<path style=" stroke:none;fill-rule:nonzero;fill:rgb(0%,0%,0%);fill-opacity:1;" d="M 11.464844 5.292969 L 12.347656 5.292969 L 12.347656 6.171875 L 11.464844 6.171875 Z M 11.464844 5.292969 "/>
<path style=" stroke:none;fill-rule:nonzero;fill:rgb(0%,0%,0%);fill-opacity:1;" d="M 5.292969 0.882812 L 6.171875 0.882812 L 6.171875 1.765625 L 5.292969 1.765625 Z M 5.292969 0.882812 "/>
<path style=" stroke:none;fill-rule:nonzero;fill:rgb(0%,0%,0%);fill-opacity:1;" d="M 4.410156 0.882812 L 5.292969 0.882812 L 5.292969 1.765625 L 4.410156 1.765625 Z M 4.410156 0.882812 "/>
<path style=" stroke:none;fill-rule:nonzero;fill:rgb(0%,0%,0%);fill-opacity:1;" d="M 6.171875 0.882812 L 7.054688 0.882812 L 7.054688 1.765625 L 6.171875 1.765625 Z M 6.171875 0.882812 "/>
<path style=" stroke:none;fill-rule:nonzero;fill:rgb(0%,0%,0%);fill-opacity:1;" d="M 7.054688 0.882812 L 7.9375 0.882812 L 7.9375 1.765625 L 7.054688 1.765625 Z M 7.054688 0.882812 "/>
<path style=" stroke:none;fill-rule:nonzero;fill:rgb(0%,0%,0%);fill-opacity:1;" d="M 0.882812 4.410156 L 1.765625 4.410156 L 1.765625 5.292969 L 0.882812 5.292969 Z M 0.882812 4.410156 "/>
<path style=" stroke:none;fill-rule:nonzero;fill:rgb(0%,0%,0%);fill-opacity:1;" d="M 0.882812 3.527344 L 1.765625 3.527344 L 1.765625 4.410156 L 0.882812 4.410156 Z M 0.882812 3.527344 "/>
<path style=" stroke:none;fill-rule:nonzero;fill:rgb(0%,0%,0%);fill-opacity:1;" d="M 1.765625 2.644531 L 2.644531 2.644531 L 2.644531 3.527344 L 1.765625 3.527344 Z M 1.765625 2.644531 "/>
<path style=" stroke:none;fill-rule:nonzero;fill:rgb(0%,0%,0%);fill-opacity:1;" d="M 3.527344 1.765625 L 4.410156 1.765625 L 4.410156 2.644531 L 3.527344 2.644531 Z M 3.527344 1.765625 "/>
<path style=" stroke:none;fill-rule:nonzero;fill:rgb(0%,0%,0%);fill-opacity:1;" d="M 2.644531 1.765625 L 3.527344 1.765625 L 3.527344 2.644531 L 2.644531 2.644531 Z M 2.644531 1.765625 "/>
<path style=" stroke:none;fill-rule:nonzero;fill:rgb(0%,0%,0%);fill-opacity:1;" d="M 2.644531 11.464844 L 3.527344 11.464844 L 3.527344 12.347656 L 2.644531 12.347656 Z M 2.644531 11.464844 "/>
<path style=" stroke:none;fill-rule:nonzero;fill:rgb(0%,0%,0%);fill-opacity:1;" d="M 1.765625 10.582031 L 2.644531 10.582031 L 2.644531 11.464844 L 1.765625 11.464844 Z M 1.765625 10.582031 "/>
<path style=" stroke:none;fill-rule:nonzero;fill:rgb(0%,0%,0%);fill-opacity:1;" d="M 0.882812 9.699219 L 1.765625 9.699219 L 1.765625 10.582031 L 0.882812 10.582031 Z M 0.882812 9.699219 "/>
<path style=" stroke:none;fill-rule:nonzero;fill:rgb(0%,0%,0%);fill-opacity:1;" d="M 0.882812 8.820312 L 1.765625 8.820312 L 1.765625 9.699219 L 0.882812 9.699219 Z M 0.882812 8.820312 "/>
<path style=" stroke:none;fill-rule:nonzero;fill:rgb(0%,0%,0%);fill-opacity:1;" d="M 0 7.9375 L 0.882812 7.9375 L 0.882812 8.820312 L 0 8.820312 Z M 0 7.9375 "/>
<path style=" stroke:none;fill-rule:nonzero;fill:rgb(0%,0%,0%);fill-opacity:1;" d="M 0 7.054688 L 0.882812 7.054688 L 0.882812 7.9375 L 0 7.9375 Z M 0 7.054688 "/>
<path style=" stroke:none;fill-rule:nonzero;fill:rgb(0%,0%,0%);fill-opacity:1;" d="M 0 6.171875 L 0.882812 6.171875 L 0.882812 7.054688 L 0 7.054688 Z M 0 6.171875 "/>
<path style=" stroke:none;fill-rule:nonzero;fill:rgb(0%,0%,0%);fill-opacity:1;" d="M 0 5.292969 L 0.882812 5.292969 L 0.882812 6.171875 L 0 6.171875 Z M 0 5.292969 "/>
<path style=" stroke:none;fill-rule:nonzero;fill:rgb(0%,0%,0%);fill-opacity:1;" d="M 3.527344 11.464844 L 4.410156 11.464844 L 4.410156 12.347656 L 3.527344 12.347656 Z M 3.527344 11.464844 "/>
<path style=" stroke:none;fill-rule:nonzero;fill:rgb(0%,0%,0%);fill-opacity:1;" d="M 9.699219 7.054688 L 10.582031 7.054688 L 10.582031 7.9375 L 9.699219 7.9375 Z M 9.699219 7.054688 "/>
<path style=" stroke:none;fill-rule:nonzero;fill:rgb(0%,0%,0%);fill-opacity:1;" d="M 10.582031 7.054688 L 11.464844 7.054688 L 11.464844 7.9375 L 10.582031 7.9375 Z M 10.582031 7.054688 "/>
<path style=" stroke:none;fill-rule:nonzero;fill:rgb(0%,0%,0%);fill-opacity:1;" d="M 8.820312 7.054688 L 9.699219 7.054688 L 9.699219 7.9375 L 8.820312 7.9375 Z M 8.820312 7.054688 "/>
<path style=" stroke:none;fill-rule:nonzero;fill:rgb(0%,0%,0%);fill-opacity:1;" d="M 7.9375 7.054688 L 8.820312 7.054688 L 8.820312 7.9375 L 7.9375 7.9375 Z M 7.9375 7.054688 "/>
<path style=" stroke:none;fill-rule:nonzero;fill:rgb(0%,0%,0%);fill-opacity:1;" d="M 5.292969 5.292969 L 6.171875 5.292969 L 6.171875 6.171875 L 5.292969 6.171875 Z M 5.292969 5.292969 "/>
<path style=" stroke:none;fill-rule:nonzero;fill:rgb(0%,0%,0%);fill-opacity:1;" d="M 6.171875 5.292969 L 7.054688 5.292969 L 7.054688 6.171875 L 6.171875 6.171875 Z M 6.171875 5.292969 "/>
<path style=" stroke:none;fill-rule:nonzero;fill:rgb(0%,0%,0%);fill-opacity:1;" d="M 7.054688 7.054688 L 7.9375 7.054688 L 7.9375 7.9375 L 7.054688 7.9375 Z M 7.054688 7.054688 "/>
<path style=" stroke:none;fill-rule:nonzero;fill:rgb(0%,0%,0%);fill-opacity:1;" d="M 7.054688 6.171875 L 7.9375 6.171875 L 7.9375 7.054688 L 7.054688 7.054688 Z M 7.054688 6.171875 "/>
<path style=" stroke:none;fill-rule:nonzero;fill:rgb(0%,0%,0%);fill-opacity:1;" d="M 6.171875 7.9375 L 7.054688 7.9375 L 7.054688 8.820312 L 6.171875 8.820312 Z M 6.171875 7.9375 "/>
<path style=" stroke:none;fill-rule:nonzero;fill:rgb(0%,0%,0%);fill-opacity:1;" d="M 5.292969 7.9375 L 6.171875 7.9375 L 6.171875 8.820312 L 5.292969 8.820312 Z M 5.292969 7.9375 "/>
<path style=" stroke:none;fill-rule:nonzero;fill:rgb(0%,0%,0%);fill-opacity:1;" d="M 4.410156 6.171875 L 5.292969 6.171875 L 5.292969 7.054688 L 4.410156 7.054688 Z M 4.410156 6.171875 "/>
<path style=" stroke:none;fill-rule:nonzero;fill:rgb(0%,0%,0%);fill-opacity:1;" d="M 3.527344 7.054688 L 4.410156 7.054688 L 4.410156 7.9375 L 3.527344 7.9375 Z M 3.527344 7.054688 "/>
<path style=" stroke:none;fill-rule:nonzero;fill:rgb(0%,0%,0%);fill-opacity:1;" d="M 4.410156 7.054688 L 5.292969 7.054688 L 5.292969 7.9375 L 4.410156 7.9375 Z M 4.410156 7.054688 "/>
<path style=" stroke:none;fill-rule:nonzero;fill:rgb(0%,0%,0%);fill-opacity:1;" d="M 2.644531 7.054688 L 3.527344 7.054688 L 3.527344 7.9375 L 2.644531 7.9375 Z M 2.644531 7.054688 "/>
<path style=" stroke:none;fill-rule:nonzero;fill:rgb(0%,0%,0%);fill-opacity:1;" d="M 0.882812 7.054688 L 1.765625 7.054688 L 1.765625 7.9375 L 0.882812 7.9375 Z M 0.882812 7.054688 "/>
<path style=" stroke:none;fill-rule:nonzero;fill:rgb(0%,0%,0%);fill-opacity:1;" d="M 1.765625 7.054688 L 2.644531 7.054688 L 2.644531 7.9375 L 1.765625 7.9375 Z M 1.765625 7.054688 "/>
<path style=" stroke:none;fill-rule:nonzero;fill:rgb(100%,0%,0%);fill-opacity:1;" d="M 0.882812 6.171875 L 1.765625 6.171875 L 1.765625 7.054688 L 0.882812 7.054688 Z M 0.882812 6.171875 "/>
<path style=" stroke:none;fill-rule:nonzero;fill:rgb(100%,0%,0%);fill-opacity:1;" d="M 9.699219 6.171875 L 10.582031 6.171875 L 10.582031 7.054688 L 9.699219 7.054688 Z M 9.699219 6.171875 "/>
<path style=" stroke:none;fill-rule:nonzero;fill:rgb(100%,0%,0%);fill-opacity:1;" d="M 8.820312 6.171875 L 9.699219 6.171875 L 9.699219 7.054688 L 8.820312 7.054688 Z M 8.820312 6.171875 "/>
<path style=" stroke:none;fill-rule:nonzero;fill:rgb(100%,0%,0%);fill-opacity:1;" d="M 10.582031 6.171875 L 11.464844 6.171875 L 11.464844 7.054688 L 10.582031 7.054688 Z M 10.582031 6.171875 "/>
<path style=" stroke:none;fill-rule:nonzero;fill:rgb(100%,0%,0%);fill-opacity:1;" d="M 7.9375 6.171875 L 8.820312 6.171875 L 8.820312 7.054688 L 7.9375 7.054688 Z M 7.9375 6.171875 "/>
<path style=" stroke:none;fill-rule:nonzero;fill:rgb(100%,0%,0%);fill-opacity:1;" d="M 7.054688 5.292969 L 7.9375 5.292969 L 7.9375 6.171875 L 7.054688 6.171875 Z M 7.054688 5.292969 "/>
<path style=" stroke:none;fill-rule:nonzero;fill:rgb(100%,0%,0%);fill-opacity:1;" d="M 5.292969 4.410156 L 6.171875 4.410156 L 6.171875 5.292969 L 5.292969 5.292969 Z M 5.292969 4.410156 "/>
<path style=" stroke:none;fill-rule:nonzero;fill:rgb(100%,0%,0%);fill-opacity:1;" d="M 6.171875 4.410156 L 7.054688 4.410156 L 7.054688 5.292969 L 6.171875 5.292969 Z M 6.171875 4.410156 "/>
<path style=" stroke:none;fill-rule:nonzero;fill:rgb(100%,0%,0%);fill-opacity:1;" d="M 1.765625 6.171875 L 2.644531 6.171875 L 2.644531 7.054688 L 1.765625 7.054688 Z M 1.765625 6.171875 "/>
<path style=" stroke:none;fill-rule:nonzero;fill:rgb(100%,0%,0%);fill-opacity:1;" d="M 2.644531 6.171875 L 3.527344 6.171875 L 3.527344 7.054688 L 2.644531 7.054688 Z M 2.644531 6.171875 "/>
<path style=" stroke:none;fill-rule:nonzero;fill:rgb(100%,0%,0%);fill-opacity:1;" d="M 3.527344 6.171875 L 4.410156 6.171875 L 4.410156 7.054688 L 3.527344 7.054688 Z M 3.527344 6.171875 "/>
<path style=" stroke:none;fill-rule:nonzero;fill:rgb(100%,0%,0%);fill-opacity:1;" d="M 4.410156 5.292969 L 5.292969 5.292969 L 5.292969 6.171875 L 4.410156 6.171875 Z M 4.410156 5.292969 "/>
<path style=" stroke:none;fill-rule:nonzero;fill:rgb(100%,0%,0%);fill-opacity:1;" d="M 7.054688 1.765625 L 7.9375 1.765625 L 7.9375 2.644531 L 7.054688 2.644531 Z M 7.054688 1.765625 "/>
<path style=" stroke:none;fill-rule:nonzero;fill:rgb(100%,0%,0%);fill-opacity:1;" d="M 7.9375 3.527344 L 8.820312 3.527344 L 8.820312 4.410156 L 7.9375 4.410156 Z M 7.9375 3.527344 "/>
<path style=" stroke:none;fill-rule:nonzero;fill:rgb(100%,0%,0%);fill-opacity:1;" d="M 8.820312 3.527344 L 9.699219 3.527344 L 9.699219 4.410156 L 8.820312 4.410156 Z M 8.820312 3.527344 "/>
<path style=" stroke:none;fill-rule:nonzero;fill:rgb(100%,0%,0%);fill-opacity:1;" d="M 7.9375 2.644531 L 8.820312 2.644531 L 8.820312 3.527344 L 7.9375 3.527344 Z M 7.9375 2.644531 "/>
<path style=" stroke:none;fill-rule:nonzero;fill:rgb(100%,0%,0%);fill-opacity:1;" d="M 8.820312 2.644531 L 9.699219 2.644531 L 9.699219 3.527344 L 8.820312 3.527344 Z M 8.820312 2.644531 "/>
<path style=" stroke:none;fill-rule:nonzero;fill:rgb(100%,0%,0%);fill-opacity:1;" d="M 9.699219 4.410156 L 10.582031 4.410156 L 10.582031 5.292969 L 9.699219 5.292969 Z M 9.699219 4.410156 "/>
<path style=" stroke:none;fill-rule:nonzero;fill:rgb(100%,0%,0%);fill-opacity:1;" d="M 9.699219 3.527344 L 10.582031 3.527344 L 10.582031 4.410156 L 9.699219 4.410156 Z M 9.699219 3.527344 "/>
<path style=" stroke:none;fill-rule:nonzero;fill:rgb(100%,0%,0%);fill-opacity:1;" d="M 8.820312 4.410156 L 9.699219 4.410156 L 9.699219 5.292969 L 8.820312 5.292969 Z M 8.820312 4.410156 "/>
<path style=" stroke:none;fill-rule:nonzero;fill:rgb(100%,0%,0%);fill-opacity:1;" d="M 7.9375 4.410156 L 8.820312 4.410156 L 8.820312 5.292969 L 7.9375 5.292969 Z M 7.9375 4.410156 "/>
<path style=" stroke:none;fill-rule:nonzero;fill:rgb(100%,0%,0%);fill-opacity:1;" d="M 7.054688 4.410156 L 7.9375 4.410156 L 7.9375 5.292969 L 7.054688 5.292969 Z M 7.054688 4.410156 "/>
<path style=" stroke:none;fill-rule:nonzero;fill:rgb(100%,0%,0%);fill-opacity:1;" d="M 7.9375 5.292969 L 8.820312 5.292969 L 8.820312 6.171875 L 7.9375 6.171875 Z M 7.9375 5.292969 "/>
<path style=" stroke:none;fill-rule:nonzero;fill:rgb(100%,0%,0%);fill-opacity:1;" d="M 8.820312 5.292969 L 9.699219 5.292969 L 9.699219 6.171875 L 8.820312 6.171875 Z M 8.820312 5.292969 "/>
<path style=" stroke:none;fill-rule:nonzero;fill:rgb(100%,0%,0%);fill-opacity:1;" d="M 9.699219 5.292969 L 10.582031 5.292969 L 10.582031 6.171875 L 9.699219 6.171875 Z M 9.699219 5.292969 "/>
<path style=" stroke:none;fill-rule:nonzero;fill:rgb(100%,0%,0%);fill-opacity:1;" d="M 10.582031 5.292969 L 11.464844 5.292969 L 11.464844 6.171875 L 10.582031 6.171875 Z M 10.582031 5.292969 "/>
<path style=" stroke:none;fill-rule:nonzero;fill:rgb(100%,0%,0%);fill-opacity:1;" d="M 3.527344 2.644531 L 4.410156 2.644531 L 4.410156 3.527344 L 3.527344 3.527344 Z M 3.527344 2.644531 "/>
<path style=" stroke:none;fill-rule:nonzero;fill:rgb(100%,0%,0%);fill-opacity:1;" d="M 4.410156 2.644531 L 5.292969 2.644531 L 5.292969 3.527344 L 4.410156 3.527344 Z M 4.410156 2.644531 "/>
<path style=" stroke:none;fill-rule:nonzero;fill:rgb(100%,0%,0%);fill-opacity:1;" d="M 1.765625 3.527344 L 2.644531 3.527344 L 2.644531 4.410156 L 1.765625 4.410156 Z M 1.765625 3.527344 "/>
<path style=" stroke:none;fill-rule:nonzero;fill:rgb(100%,0%,0%);fill-opacity:1;" d="M 2.644531 2.644531 L 3.527344 2.644531 L 3.527344 3.527344 L 2.644531 3.527344 Z M 2.644531 2.644531 "/>
<path style=" stroke:none;fill-rule:nonzero;fill:rgb(100%,0%,0%);fill-opacity:1;" d="M 6.171875 2.644531 L 7.054688 2.644531 L 7.054688 3.527344 L 6.171875 3.527344 Z M 6.171875 2.644531 "/>
<path style=" stroke:none;fill-rule:nonzero;fill:rgb(100%,0%,0%);fill-opacity:1;" d="M 7.054688 2.644531 L 7.9375 2.644531 L 7.9375 3.527344 L 7.054688 3.527344 Z M 7.054688 2.644531 "/>
<path style=" stroke:none;fill-rule:nonzero;fill:rgb(100%,100%,100%);fill-opacity:1;" d="M 7.054688 2.644531 L 7.9375 2.644531 L 7.9375 3.527344 L 7.054688 3.527344 Z M 7.054688 2.644531 "/>
<path style=" stroke:none;fill-rule:nonzero;fill:rgb(100%,100%,100%);fill-opacity:1;" d="M 7.054688 2.644531 L 7.9375 2.644531 L 7.9375 3.527344 L 7.054688 3.527344 Z M 7.054688 2.644531 "/>
<path style=" stroke:none;fill-rule:nonzero;fill:rgb(100%,100%,100%);fill-opacity:1;" d="M 7.054688 2.644531 L 7.9375 2.644531 L 7.9375 3.527344 L 7.054688 3.527344 Z M 7.054688 2.644531 "/>
<path style=" stroke:none;fill-rule:nonzero;fill:rgb(100%,100%,100%);fill-opacity:1;" d="M 7.054688 2.644531 L 7.9375 2.644531 L 7.9375 3.527344 L 7.054688 3.527344 Z M 7.054688 2.644531 "/>
<path style=" stroke:none;fill-rule:nonzero;fill:rgb(100%,100%,100%);fill-opacity:1;" d="M 7.054688 2.644531 L 7.9375 2.644531 L 7.9375 3.527344 L 7.054688 3.527344 Z M 7.054688 2.644531 "/>
<path style=" stroke:none;fill-rule:nonzero;fill:rgb(100%,100%,100%);fill-opacity:1;" d="M 7.054688 2.644531 L 7.9375 2.644531 L 7.9375 3.527344 L 7.054688 3.527344 Z M 7.054688 2.644531 "/>
<path style=" stroke:none;fill-rule:nonzero;fill:rgb(100%,0%,0%);fill-opacity:1;" d="M 7.054688 2.644531 L 7.9375 2.644531 L 7.9375 3.527344 L 7.054688 3.527344 Z M 7.054688 2.644531 "/>
<path style=" stroke:none;fill-rule:nonzero;fill:rgb(100%,100%,100%);fill-opacity:1;" d="M 3.527344 9.699219 L 4.410156 9.699219 L 4.410156 10.582031 L 3.527344 10.582031 Z M 3.527344 9.699219 "/>
<path style=" stroke:none;fill-rule:nonzero;fill:rgb(100%,100%,100%);fill-opacity:1;" d="M 3.527344 8.820312 L 4.410156 8.820312 L 4.410156 9.699219 L 3.527344 9.699219 Z M 3.527344 8.820312 "/>
<path style=" stroke:none;fill-rule:nonzero;fill:rgb(100%,100%,100%);fill-opacity:1;" d="M 5.292969 10.582031 L 6.171875 10.582031 L 6.171875 11.464844 L 5.292969 11.464844 Z M 5.292969 10.582031 "/>
<path style=" stroke:none;fill-rule:nonzero;fill:rgb(100%,100%,100%);fill-opacity:1;" d="M 5.292969 9.699219 L 6.171875 9.699219 L 6.171875 10.582031 L 5.292969 10.582031 Z M 5.292969 9.699219 "/>
<path style=" stroke:none;fill-rule:nonzero;fill:rgb(100%,0%,0%);fill-opacity:1;" d="M 6.171875 3.527344 L 7.054688 3.527344 L 7.054688 4.410156 L 6.171875 4.410156 Z M 6.171875 3.527344 "/>
<path style=" stroke:none;fill-rule:nonzero;fill:rgb(100%,0%,0%);fill-opacity:1;" d="M 7.054688 3.527344 L 7.9375 3.527344 L 7.9375 4.410156 L 7.054688 4.410156 Z M 7.054688 3.527344 "/>
<path style=" stroke:none;fill-rule:nonzero;fill:rgb(100%,100%,100%);fill-opacity:1;" d="M 6.171875 11.464844 L 7.054688 11.464844 L 7.054688 12.347656 L 6.171875 12.347656 Z M 6.171875 11.464844 "/>
<path style=" stroke:none;fill-rule:nonzero;fill:rgb(100%,100%,100%);fill-opacity:1;" d="M 6.171875 9.699219 L 7.054688 9.699219 L 7.054688 10.582031 L 6.171875 10.582031 Z M 6.171875 9.699219 "/>
<path style=" stroke:none;fill-rule:nonzero;fill:rgb(100%,0%,0%);fill-opacity:1;" d="M 4.410156 10.582031 L 5.292969 10.582031 L 5.292969 11.464844 L 4.410156 11.464844 Z M 4.410156 10.582031 "/>
<path style=" stroke:none;fill-rule:nonzero;fill:rgb(100%,0%,0%);fill-opacity:1;" d="M 3.527344 10.582031 L 4.410156 10.582031 L 4.410156 11.464844 L 3.527344 11.464844 Z M 3.527344 10.582031 "/>
<path style=" stroke:none;fill-rule:nonzero;fill:rgb(100%,0%,0%);fill-opacity:1;" d="M 4.410156 9.699219 L 5.292969 9.699219 L 5.292969 10.582031 L 4.410156 10.582031 Z M 4.410156 9.699219 "/>
<path style=" stroke:none;fill-rule:nonzero;fill:rgb(100%,0%,0%);fill-opacity:1;" d="M 1.765625 7.9375 L 2.644531 7.9375 L 2.644531 8.820312 L 1.765625 8.820312 Z M 1.765625 7.9375 "/>
<path style=" stroke:none;fill-rule:nonzero;fill:rgb(100%,0%,0%);fill-opacity:1;" d="M 7.9375 10.582031 L 8.820312 10.582031 L 8.820312 11.464844 L 7.9375 11.464844 Z M 7.9375 10.582031 "/>
<path style=" stroke:none;fill-rule:nonzero;fill:rgb(100%,0%,0%);fill-opacity:1;" d="M 8.820312 10.582031 L 9.699219 10.582031 L 9.699219 11.464844 L 8.820312 11.464844 Z M 8.820312 10.582031 "/>
<path style=" stroke:none;fill-rule:nonzero;fill:rgb(100%,0%,0%);fill-opacity:1;" d="M 8.820312 8.820312 L 9.699219 8.820312 L 9.699219 9.699219 L 8.820312 9.699219 Z M 8.820312 8.820312 "/>
<path style=" stroke:none;fill-rule:nonzero;fill:rgb(100%,100%,100%);fill-opacity:1;" d="M 8.820312 8.820312 L 9.699219 8.820312 L 9.699219 9.699219 L 8.820312 9.699219 Z M 8.820312 8.820312 "/>
<path style=" stroke:none;fill-rule:nonzero;fill:rgb(100%,0%,0%);fill-opacity:1;" d="M 8.820312 9.699219 L 9.699219 9.699219 L 9.699219 10.582031 L 8.820312 10.582031 Z M 8.820312 9.699219 "/>
<path style=" stroke:none;fill-rule:nonzero;fill:rgb(100%,100%,100%);fill-opacity:1;" d="M 8.820312 9.699219 L 9.699219 9.699219 L 9.699219 10.582031 L 8.820312 10.582031 Z M 8.820312 9.699219 "/>
<path style=" stroke:none;fill-rule:nonzero;fill:rgb(100%,0%,0%);fill-opacity:1;" d="M 7.9375 8.820312 L 8.820312 8.820312 L 8.820312 9.699219 L 7.9375 9.699219 Z M 7.9375 8.820312 "/>
<path style=" stroke:none;fill-rule:nonzero;fill:rgb(100%,100%,100%);fill-opacity:1;" d="M 7.9375 8.820312 L 8.820312 8.820312 L 8.820312 9.699219 L 7.9375 9.699219 Z M 7.9375 8.820312 "/>
<path style=" stroke:none;fill-rule:nonzero;fill:rgb(100%,0%,0%);fill-opacity:1;" d="M 7.9375 9.699219 L 8.820312 9.699219 L 8.820312 10.582031 L 7.9375 10.582031 Z M 7.9375 9.699219 "/>
<path style=" stroke:none;fill-rule:nonzero;fill:rgb(100%,100%,100%);fill-opacity:1;" d="M 7.9375 9.699219 L 8.820312 9.699219 L 8.820312 10.582031 L 7.9375 10.582031 Z M 7.9375 9.699219 "/>
<path style=" stroke:none;fill-rule:nonzero;fill:rgb(100%,0%,0%);fill-opacity:1;" d="M 9.699219 9.699219 L 10.582031 9.699219 L 10.582031 10.582031 L 9.699219 10.582031 Z M 9.699219 9.699219 "/>
<path style=" stroke:none;fill-rule:nonzero;fill:rgb(100%,0%,0%);fill-opacity:1;" d="M 9.699219 8.820312 L 10.582031 8.820312 L 10.582031 9.699219 L 9.699219 9.699219 Z M 9.699219 8.820312 "/>
<path style=" stroke:none;fill-rule:nonzero;fill:rgb(100%,0%,0%);fill-opacity:1;" d="M 7.9375 7.9375 L 8.820312 7.9375 L 8.820312 8.820312 L 7.9375 8.820312 Z M 7.9375 7.9375 "/>
<path style=" stroke:none;fill-rule:nonzero;fill:rgb(100%,0%,0%);fill-opacity:1;" d="M 8.820312 7.9375 L 9.699219 7.9375 L 9.699219 8.820312 L 8.820312 8.820312 Z M 8.820312 7.9375 "/>
<path style=" stroke:none;fill-rule:nonzero;fill:rgb(100%,0%,0%);fill-opacity:1;" d="M 9.699219 7.9375 L 10.582031 7.9375 L 10.582031 8.820312 L 9.699219 8.820312 Z M 9.699219 7.9375 "/>
<path style=" stroke:none;fill-rule:nonzero;fill:rgb(100%,100%,100%);fill-opacity:1;" d="M 7.054688 7.9375 L 7.9375 7.9375 L 7.9375 8.820312 L 7.054688 8.820312 Z M 7.054688 7.9375 "/>
<path style=" stroke:none;fill-rule:nonzero;fill:rgb(100%,100%,100%);fill-opacity:1;" d="M 7.054688 8.820312 L 7.9375 8.820312 L 7.9375 9.699219 L 7.054688 9.699219 Z M 7.054688 8.820312 "/>
<path style=" stroke:none;fill-rule:nonzero;fill:rgb(100%,100%,100%);fill-opacity:1;" d="M 7.054688 9.699219 L 7.9375 9.699219 L 7.9375 10.582031 L 7.054688 10.582031 Z M 7.054688 9.699219 "/>
<path style=" stroke:none;fill-rule:nonzero;fill:rgb(100%,100%,100%);fill-opacity:1;" d="M 7.054688 10.582031 L 7.9375 10.582031 L 7.9375 11.464844 L 7.054688 11.464844 Z M 7.054688 10.582031 "/>
<path style=" stroke:none;fill-rule:nonzero;fill:rgb(100%,100%,100%);fill-opacity:1;" d="M 7.054688 11.464844 L 7.9375 11.464844 L 7.9375 12.347656 L 7.054688 12.347656 Z M 7.054688 11.464844 "/>
<path style=" stroke:none;fill-rule:nonzero;fill:rgb(100%,0%,0%);fill-opacity:1;" d="M 6.171875 1.765625 L 7.054688 1.765625 L 7.054688 2.644531 L 6.171875 2.644531 Z M 6.171875 1.765625 "/>
<path style=" stroke:none;fill-rule:nonzero;fill:rgb(100%,0%,0%);fill-opacity:1;" d="M 1.765625 4.410156 L 2.644531 4.410156 L 2.644531 5.292969 L 1.765625 5.292969 Z M 1.765625 4.410156 "/>
<path style=" stroke:none;fill-rule:nonzero;fill:rgb(100%,0%,0%);fill-opacity:1;" d="M 2.644531 4.410156 L 3.527344 4.410156 L 3.527344 5.292969 L 2.644531 5.292969 Z M 2.644531 4.410156 "/>
<path style=" stroke:none;fill-rule:nonzero;fill:rgb(100%,0%,0%);fill-opacity:1;" d="M 3.527344 4.410156 L 4.410156 4.410156 L 4.410156 5.292969 L 3.527344 5.292969 Z M 3.527344 4.410156 "/>
<path style=" stroke:none;fill-rule:nonzero;fill:rgb(100%,0%,0%);fill-opacity:1;" d="M 0.882812 5.292969 L 1.765625 5.292969 L 1.765625 6.171875 L 0.882812 6.171875 Z M 0.882812 5.292969 "/>
<path style=" stroke:none;fill-rule:nonzero;fill:rgb(100%,0%,0%);fill-opacity:1;" d="M 1.765625 5.292969 L 2.644531 5.292969 L 2.644531 6.171875 L 1.765625 6.171875 Z M 1.765625 5.292969 "/>
<path style=" stroke:none;fill-rule:nonzero;fill:rgb(100%,0%,0%);fill-opacity:1;" d="M 2.644531 5.292969 L 3.527344 5.292969 L 3.527344 6.171875 L 2.644531 6.171875 Z M 2.644531 5.292969 "/>
<path style=" stroke:none;fill-rule:nonzero;fill:rgb(100%,0%,0%);fill-opacity:1;" d="M 3.527344 5.292969 L 4.410156 5.292969 L 4.410156 6.171875 L 3.527344 6.171875 Z M 3.527344 5.292969 "/>
<path style=" stroke:none;fill-rule:nonzero;fill:rgb(100%,0%,0%);fill-opacity:1;" d="M 4.410156 4.410156 L 5.292969 4.410156 L 5.292969 5.292969 L 4.410156 5.292969 Z M 4.410156 4.410156 "/>
<path style=" stroke:none;fill-rule:nonzero;fill:rgb(100%,0%,0%);fill-opacity:1;" d="M 5.292969 1.765625 L 6.171875 1.765625 L 6.171875 2.644531 L 5.292969 2.644531 Z M 5.292969 1.765625 "/>
<path style=" stroke:none;fill-rule:nonzero;fill:rgb(100%,0%,0%);fill-opacity:1;" d="M 2.644531 3.527344 L 3.527344 3.527344 L 3.527344 4.410156 L 2.644531 4.410156 Z M 2.644531 3.527344 "/>
<path style=" stroke:none;fill-rule:nonzero;fill:rgb(100%,0%,0%);fill-opacity:1;" d="M 3.527344 3.527344 L 4.410156 3.527344 L 4.410156 4.410156 L 3.527344 4.410156 Z M 3.527344 3.527344 "/>
<path style=" stroke:none;fill-rule:nonzero;fill:rgb(100%,0%,0%);fill-opacity:1;" d="M 4.410156 3.527344 L 5.292969 3.527344 L 5.292969 4.410156 L 4.410156 4.410156 Z M 4.410156 3.527344 "/>
<path style=" stroke:none;fill-rule:nonzero;fill:rgb(100%,0%,0%);fill-opacity:1;" d="M 5.292969 3.527344 L 6.171875 3.527344 L 6.171875 4.410156 L 5.292969 4.410156 Z M 5.292969 3.527344 "/>
<path style=" stroke:none;fill-rule:nonzero;fill:rgb(100%,0%,0%);fill-opacity:1;" d="M 5.292969 2.644531 L 6.171875 2.644531 L 6.171875 3.527344 L 5.292969 3.527344 Z M 5.292969 2.644531 "/>
<path style=" stroke:none;fill-rule:nonzero;fill:rgb(100%,0%,0%);fill-opacity:1;" d="M 4.410156 1.765625 L 5.292969 1.765625 L 5.292969 2.644531 L 4.410156 2.644531 Z M 4.410156 1.765625 "/>
<path style=" stroke:none;fill-rule:nonzero;fill:rgb(100%,100%,100%);fill-opacity:1;" d="M 10.582031 7.9375 L 11.464844 7.9375 L 11.464844 8.820312 L 10.582031 8.820312 Z M 10.582031 7.9375 "/>
<path style=" stroke:none;fill-rule:nonzero;fill:rgb(100%,100%,100%);fill-opacity:1;" d="M 4.410156 8.820312 L 5.292969 8.820312 L 5.292969 9.699219 L 4.410156 9.699219 Z M 4.410156 8.820312 "/>
<path style=" stroke:none;fill-rule:nonzero;fill:rgb(100%,100%,100%);fill-opacity:1;" d="M 3.527344 8.820312 L 4.410156 8.820312 L 4.410156 9.699219 L 3.527344 9.699219 Z M 3.527344 8.820312 "/>
<path style=" stroke:none;fill-rule:nonzero;fill:rgb(100%,100%,100%);fill-opacity:1;" d="M 2.644531 8.820312 L 3.527344 8.820312 L 3.527344 9.699219 L 2.644531 9.699219 Z M 2.644531 8.820312 "/>
<path style=" stroke:none;fill-rule:nonzero;fill:rgb(100%,100%,100%);fill-opacity:1;" d="M 2.644531 9.699219 L 3.527344 9.699219 L 3.527344 10.582031 L 2.644531 10.582031 Z M 2.644531 9.699219 "/>
<path style=" stroke:none;fill-rule:nonzero;fill:rgb(100%,100%,100%);fill-opacity:1;" d="M 2.644531 10.582031 L 3.527344 10.582031 L 3.527344 11.464844 L 2.644531 11.464844 Z M 2.644531 10.582031 "/>
<path style=" stroke:none;fill-rule:nonzero;fill:rgb(100%,100%,100%);fill-opacity:1;" d="M 1.765625 9.699219 L 2.644531 9.699219 L 2.644531 10.582031 L 1.765625 10.582031 Z M 1.765625 9.699219 "/>
<path style=" stroke:none;fill-rule:nonzero;fill:rgb(100%,100%,100%);fill-opacity:1;" d="M 1.765625 8.820312 L 2.644531 8.820312 L 2.644531 9.699219 L 1.765625 9.699219 Z M 1.765625 8.820312 "/>
<path style=" stroke:none;fill-rule:nonzero;fill:rgb(100%,100%,100%);fill-opacity:1;" d="M 0.882812 7.9375 L 1.765625 7.9375 L 1.765625 8.820312 L 0.882812 8.820312 Z M 0.882812 7.9375 "/>
<path style=" stroke:none;fill-rule:nonzero;fill:rgb(100%,100%,100%);fill-opacity:1;" d="M 2.644531 7.9375 L 3.527344 7.9375 L 3.527344 8.820312 L 2.644531 8.820312 Z M 2.644531 7.9375 "/>
<path style=" stroke:none;fill-rule:nonzero;fill:rgb(100%,100%,100%);fill-opacity:1;" d="M 3.527344 7.9375 L 4.410156 7.9375 L 4.410156 8.820312 L 3.527344 8.820312 Z M 3.527344 7.9375 "/>
<path style=" stroke:none;fill-rule:nonzero;fill:rgb(100%,100%,100%);fill-opacity:1;" d="M 4.410156 7.9375 L 5.292969 7.9375 L 5.292969 8.820312 L 4.410156 8.820312 Z M 4.410156 7.9375 "/>
<path style=" stroke:none;fill-rule:nonzero;fill:rgb(100%,0%,0%);fill-opacity:1;" d="M 6.171875 8.820312 L 7.054688 8.820312 L 7.054688 9.699219 L 6.171875 9.699219 Z M 6.171875 8.820312 "/>
<path style=" stroke:none;fill-rule:nonzero;fill:rgb(100%,0%,0%);fill-opacity:1;" d="M 6.171875 9.699219 L 7.054688 9.699219 L 7.054688 10.582031 L 6.171875 10.582031 Z M 6.171875 9.699219 "/>
<path style=" stroke:none;fill-rule:nonzero;fill:rgb(100%,0%,0%);fill-opacity:1;" d="M 7.054688 10.582031 L 7.9375 10.582031 L 7.9375 11.464844 L 7.054688 11.464844 Z M 7.054688 10.582031 "/>
<path style=" stroke:none;fill-rule:nonzero;fill:rgb(100%,100%,100%);fill-opacity:1;" d="M 7.054688 10.582031 L 7.9375 10.582031 L 7.9375 11.464844 L 7.054688 11.464844 Z M 7.054688 10.582031 "/>
<path style=" stroke:none;fill-rule:nonzero;fill:rgb(100%,0%,0%);fill-opacity:1;" d="M 5.292969 11.464844 L 6.171875 11.464844 L 6.171875 12.347656 L 5.292969 12.347656 Z M 5.292969 11.464844 "/>
<path style=" stroke:none;fill-rule:nonzero;fill:rgb(100%,0%,0%);fill-opacity:1;" d="M 7.054688 11.464844 L 7.9375 11.464844 L 7.9375 12.347656 L 7.054688 12.347656 Z M 7.054688 11.464844 "/>
<path style=" stroke:none;fill-rule:nonzero;fill:rgb(100%,0%,0%);fill-opacity:1;" d="M 6.171875 11.464844 L 7.054688 11.464844 L 7.054688 12.347656 L 6.171875 12.347656 Z M 6.171875 11.464844 "/>
<path style=" stroke:none;fill-rule:nonzero;fill:rgb(100%,0%,0%);fill-opacity:1;" d="M 4.410156 11.464844 L 5.292969 11.464844 L 5.292969 12.347656 L 4.410156 12.347656 Z M 4.410156 11.464844 "/>
<path style=" stroke:none;fill-rule:nonzero;fill:rgb(100%,0%,0%);fill-opacity:1;" d="M 7.054688 7.9375 L 7.9375 7.9375 L 7.9375 8.820312 L 7.054688 8.820312 Z M 7.054688 7.9375 "/>
<path style=" stroke:none;fill-rule:nonzero;fill:rgb(100%,0%,0%);fill-opacity:1;" d="M 10.582031 7.9375 L 11.464844 7.9375 L 11.464844 8.820312 L 10.582031 8.820312 Z M 10.582031 7.9375 "/>
<path style=" stroke:none;fill-rule:nonzero;fill:rgb(100%,0%,0%);fill-opacity:1;" d="M 6.171875 10.582031 L 7.054688 10.582031 L 7.054688 11.464844 L 6.171875 11.464844 Z M 6.171875 10.582031 "/>
<path style=" stroke:none;fill-rule:nonzero;fill:rgb(100%,0%,0%);fill-opacity:1;" d="M 4.410156 8.820312 L 5.292969 8.820312 L 5.292969 9.699219 L 4.410156 9.699219 Z M 4.410156 8.820312 "/>
<path style=" stroke:none;fill-rule:nonzero;fill:rgb(100%,100%,100%);fill-opacity:1;" d="M 4.410156 8.820312 L 5.292969 8.820312 L 5.292969 9.699219 L 4.410156 9.699219 Z M 4.410156 8.820312 "/>
<path style=" stroke:none;fill-rule:nonzero;fill:rgb(100%,0%,0%);fill-opacity:1;" d="M 4.410156 7.9375 L 5.292969 7.9375 L 5.292969 8.820312 L 4.410156 8.820312 Z M 4.410156 7.9375 "/>
<path style=" stroke:none;fill-rule:nonzero;fill:rgb(100%,0%,0%);fill-opacity:1;" d="M 5.292969 10.582031 L 6.171875 10.582031 L 6.171875 11.464844 L 5.292969 11.464844 Z M 5.292969 10.582031 "/>
<path style=" stroke:none;fill-rule:nonzero;fill:rgb(100%,100%,100%);fill-opacity:1;" d="M 5.292969 10.582031 L 6.171875 10.582031 L 6.171875 11.464844 L 5.292969 11.464844 Z M 5.292969 10.582031 "/>
<path style=" stroke:none;fill-rule:nonzero;fill:rgb(100%,100%,100%);fill-opacity:1;" d="M 6.171875 10.582031 L 7.054688 10.582031 L 7.054688 11.464844 L 6.171875 11.464844 Z M 6.171875 10.582031 "/>
<path style=" stroke:none;fill-rule:nonzero;fill:rgb(100%,0%,0%);fill-opacity:1;" d="M 5.292969 9.699219 L 6.171875 9.699219 L 6.171875 10.582031 L 5.292969 10.582031 Z M 5.292969 9.699219 "/>
<path style=" stroke:none;fill-rule:nonzero;fill:rgb(100%,100%,100%);fill-opacity:1;" d="M 4.410156 9.699219 L 5.292969 9.699219 L 5.292969 10.582031 L 4.410156 10.582031 Z M 4.410156 9.699219 "/>
<path style=" stroke:none;fill-rule:nonzero;fill:rgb(100%,100%,100%);fill-opacity:1;" d="M 3.867188 9.941406 L 4.75 9.941406 L 4.75 10.820312 L 3.867188 10.820312 Z M 3.867188 9.941406 "/>
<path style=" stroke:none;fill-rule:nonzero;fill:rgb(100%,0%,0%);fill-opacity:1;" d="M 5.292969 8.820312 L 6.171875 8.820312 L 6.171875 9.699219 L 5.292969 9.699219 Z M 5.292969 8.820312 "/>
<path style=" stroke:none;fill-rule:nonzero;fill:rgb(100%,0%,0%);fill-opacity:1;" d="M 7.054688 9.699219 L 7.9375 9.699219 L 7.9375 10.582031 L 7.054688 10.582031 Z M 7.054688 9.699219 "/>
<path style=" stroke:none;fill-rule:nonzero;fill:rgb(100%,100%,100%);fill-opacity:1;" d="M 7.054688 9.699219 L 7.9375 9.699219 L 7.9375 10.582031 L 7.054688 10.582031 Z M 7.054688 9.699219 "/>
<path style=" stroke:none;fill-rule:nonzero;fill:rgb(100%,100%,100%);fill-opacity:1;" d="M 5.292969 9.699219 L 6.171875 9.699219 L 6.171875 10.582031 L 5.292969 10.582031 Z M 5.292969 9.699219 "/>
<path style=" stroke:none;fill-rule:nonzero;fill:rgb(100%,100%,100%);fill-opacity:1;" d="M 6.171875 9.699219 L 7.054688 9.699219 L 7.054688 10.582031 L 6.171875 10.582031 Z M 6.171875 9.699219 "/>
<path style=" stroke:none;fill-rule:nonzero;fill:rgb(100%,0%,0%);fill-opacity:1;" d="M 7.054688 8.820312 L 7.9375 8.820312 L 7.9375 9.699219 L 7.054688 9.699219 Z M 7.054688 8.820312 "/>
<path style=" stroke:none;fill-rule:nonzero;fill:rgb(100%,100%,100%);fill-opacity:1;" d="M 7.054688 8.820312 L 7.9375 8.820312 L 7.9375 9.699219 L 7.054688 9.699219 Z M 7.054688 8.820312 "/>
<path style=" stroke:none;fill-rule:nonzero;fill:rgb(100%,0%,0%);fill-opacity:1;" d="M 1.765625 8.820312 L 2.644531 8.820312 L 2.644531 9.699219 L 1.765625 9.699219 Z M 1.765625 8.820312 "/>
<path style=" stroke:none;fill-rule:nonzero;fill:rgb(100%,0%,0%);fill-opacity:1;" d="M 3.527344 9.699219 L 4.410156 9.699219 L 4.410156 10.582031 L 3.527344 10.582031 Z M 3.527344 9.699219 "/>
<path style=" stroke:none;fill-rule:nonzero;fill:rgb(100%,100%,100%);fill-opacity:1;" d="M 3.527344 9.699219 L 4.410156 9.699219 L 4.410156 10.582031 L 3.527344 10.582031 Z M 3.527344 9.699219 "/>
<path style=" stroke:none;fill-rule:nonzero;fill:rgb(100%,100%,100%);fill-opacity:1;" d="M 3.527344 9.699219 L 4.410156 9.699219 L 4.410156 10.582031 L 3.527344 10.582031 Z M 3.527344 9.699219 "/>
<path style=" stroke:none;fill-rule:nonzero;fill:rgb(100%,100%,100%);fill-opacity:1;" d="M 6.171875 6.171875 L 7.054688 6.171875 L 7.054688 7.054688 L 6.171875 7.054688 Z M 6.171875 6.171875 "/>
<path style=" stroke:none;fill-rule:nonzero;fill:rgb(100%,100%,100%);fill-opacity:1;" d="M 5.292969 7.054688 L 6.171875 7.054688 L 6.171875 7.9375 L 5.292969 7.9375 Z M 5.292969 7.054688 "/>
<path style=" stroke:none;fill-rule:nonzero;fill:rgb(100%,100%,100%);fill-opacity:1;" d="M 6.171875 7.054688 L 7.054688 7.054688 L 7.054688 7.9375 L 6.171875 7.9375 Z M 6.171875 7.054688 "/>
<path style=" stroke:none;fill-rule:nonzero;fill:rgb(100%,100%,100%);fill-opacity:1;" d="M 5.292969 6.171875 L 6.171875 6.171875 L 6.171875 7.054688 L 5.292969 7.054688 Z M 5.292969 6.171875 "/>
<path style=" stroke:none;fill-rule:nonzero;fill:rgb(100%,0%,0%);fill-opacity:1;" d="M 0.882812 7.9375 L 1.765625 7.9375 L 1.765625 8.820312 L 0.882812 8.820312 Z M 0.882812 7.9375 "/>
<path style=" stroke:none;fill-rule:nonzero;fill:rgb(100%,0%,0%);fill-opacity:1;" d="M 3.527344 8.820312 L 4.410156 8.820312 L 4.410156 9.699219 L 3.527344 9.699219 Z M 3.527344 8.820312 "/>
<path style=" stroke:none;fill-rule:nonzero;fill:rgb(100%,100%,100%);fill-opacity:1;" d="M 3.527344 8.820312 L 4.410156 8.820312 L 4.410156 9.699219 L 3.527344 9.699219 Z M 3.527344 8.820312 "/>
<path style=" stroke:none;fill-rule:nonzero;fill:rgb(100%,0%,0%);fill-opacity:1;" d="M 1.765625 9.699219 L 2.644531 9.699219 L 2.644531 10.582031 L 1.765625 10.582031 Z M 1.765625 9.699219 "/>
<path style=" stroke:none;fill-rule:nonzero;fill:rgb(100%,0%,0%);fill-opacity:1;" d="M 3.527344 7.9375 L 4.410156 7.9375 L 4.410156 8.820312 L 3.527344 8.820312 Z M 3.527344 7.9375 "/>
<path style=" stroke:none;fill-rule:nonzero;fill:rgb(100%,0%,0%);fill-opacity:1;" d="M 2.644531 10.582031 L 3.527344 10.582031 L 3.527344 11.464844 L 2.644531 11.464844 Z M 2.644531 10.582031 "/>
<path style=" stroke:none;fill-rule:nonzero;fill:rgb(100%,0%,0%);fill-opacity:1;" d="M 2.644531 7.9375 L 3.527344 7.9375 L 3.527344 8.820312 L 2.644531 8.820312 Z M 2.644531 7.9375 "/>
<path style=" stroke:none;fill-rule:nonzero;fill:rgb(100%,0%,0%);fill-opacity:1;" d="M 2.644531 8.820312 L 3.527344 8.820312 L 3.527344 9.699219 L 2.644531 9.699219 Z M 2.644531 8.820312 "/>
<path style=" stroke:none;fill-rule:nonzero;fill:rgb(100%,0%,0%);fill-opacity:1;" d="M 2.644531 9.699219 L 3.527344 9.699219 L 3.527344 10.582031 L 2.644531 10.582031 Z M 2.644531 9.699219 "/>
<path style=" stroke:none;fill-rule:nonzero;fill:rgb(100%,100%,100%);fill-opacity:1;" d="M 1.765625 9.699219 L 2.644531 9.699219 L 2.644531 10.582031 L 1.765625 10.582031 Z M 1.765625 9.699219 "/>
<path style=" stroke:none;fill-rule:nonzero;fill:rgb(100%,100%,100%);fill-opacity:1;" d="M 10.582031 7.9375 L 11.464844 7.9375 L 11.464844 8.820312 L 10.582031 8.820312 Z M 10.582031 7.9375 "/>
<path style=" stroke:none;fill-rule:nonzero;fill:rgb(100%,0%,0%);fill-opacity:1;" d="M 10.582031 7.9375 L 11.464844 7.9375 L 11.464844 8.820312 L 10.582031 8.820312 Z M 10.582031 7.9375 "/>
<path style=" stroke:none;fill-rule:nonzero;fill:rgb(100%,100%,100%);fill-opacity:1;" d="M 10.582031 7.9375 L 11.464844 7.9375 L 11.464844 8.820312 L 10.582031 8.820312 Z M 10.582031 7.9375 "/>
<path style=" stroke:none;fill-rule:nonzero;fill:rgb(100%,100%,100%);fill-opacity:1;" d="M 1.765625 8.820312 L 2.644531 8.820312 L 2.644531 9.699219 L 1.765625 9.699219 Z M 1.765625 8.820312 "/>
<path style=" stroke:none;fill-rule:nonzero;fill:rgb(100%,100%,100%);fill-opacity:1;" d="M 2.644531 9.699219 L 3.527344 9.699219 L 3.527344 10.582031 L 2.644531 10.582031 Z M 2.644531 9.699219 "/>
<path style=" stroke:none;fill-rule:nonzero;fill:rgb(100%,100%,100%);fill-opacity:1;" d="M 2.644531 8.820312 L 3.527344 8.820312 L 3.527344 9.699219 L 2.644531 9.699219 Z M 2.644531 8.820312 "/>
<path style=" stroke:none;fill-rule:nonzero;fill:rgb(100%,100%,100%);fill-opacity:1;" d="M 2.644531 10.582031 L 3.527344 10.582031 L 3.527344 11.464844 L 2.644531 11.464844 Z M 2.644531 10.582031 "/>
<path style=" stroke:none;fill-rule:nonzero;fill:rgb(100%,100%,100%);fill-opacity:1;" d="M 3.527344 10.582031 L 4.410156 10.582031 L 4.410156 11.464844 L 3.527344 11.464844 Z M 3.527344 10.582031 "/>
<path style=" stroke:none;fill-rule:nonzero;fill:rgb(100%,100%,100%);fill-opacity:1;" d="M 4.410156 10.582031 L 5.292969 10.582031 L 5.292969 11.464844 L 4.410156 11.464844 Z M 4.410156 10.582031 "/>
<path style=" stroke:none;fill-rule:nonzero;fill:rgb(100%,100%,100%);fill-opacity:1;" d="M 4.410156 11.464844 L 5.292969 11.464844 L 5.292969 12.347656 L 4.410156 12.347656 Z M 4.410156 11.464844 "/>
<path style=" stroke:none;fill-rule:nonzero;fill:rgb(100%,100%,100%);fill-opacity:1;" d="M 5.292969 11.464844 L 6.171875 11.464844 L 6.171875 12.347656 L 5.292969 12.347656 Z M 5.292969 11.464844 "/>
<path style=" stroke:none;fill-rule:nonzero;fill:rgb(100%,100%,100%);fill-opacity:1;" d="M 6.171875 11.464844 L 7.054688 11.464844 L 7.054688 12.347656 L 6.171875 12.347656 Z M 6.171875 11.464844 "/>
<path style=" stroke:none;fill-rule:nonzero;fill:rgb(100%,100%,100%);fill-opacity:1;" d="M 7.054688 11.464844 L 7.9375 11.464844 L 7.9375 12.347656 L 7.054688 12.347656 Z M 7.054688 11.464844 "/>
<path style=" stroke:none;fill-rule:nonzero;fill:rgb(100%,100%,100%);fill-opacity:1;" d="M 7.9375 10.582031 L 8.820312 10.582031 L 8.820312 11.464844 L 7.9375 11.464844 Z M 7.9375 10.582031 "/>
<path style=" stroke:none;fill-rule:nonzero;fill:rgb(100%,100%,100%);fill-opacity:1;" d="M 8.820312 10.582031 L 9.699219 10.582031 L 9.699219 11.464844 L 8.820312 11.464844 Z M 8.820312 10.582031 "/>
<path style=" stroke:none;fill-rule:nonzero;fill:rgb(100%,100%,100%);fill-opacity:1;" d="M 9.699219 9.699219 L 10.582031 9.699219 L 10.582031 10.582031 L 9.699219 10.582031 Z M 9.699219 9.699219 "/>
<path style=" stroke:none;fill-rule:nonzero;fill:rgb(100%,100%,100%);fill-opacity:1;" d="M 9.699219 8.820312 L 10.582031 8.820312 L 10.582031 9.699219 L 9.699219 9.699219 Z M 9.699219 8.820312 "/>
<path style=" stroke:none;fill-rule:nonzero;fill:rgb(100%,100%,100%);fill-opacity:1;" d="M 0.882812 7.9375 L 1.765625 7.9375 L 1.765625 8.820312 L 0.882812 8.820312 Z M 0.882812 7.9375 "/>
<path style=" stroke:none;fill-rule:nonzero;fill:rgb(100%,100%,100%);fill-opacity:1;" d="M 1.765625 7.9375 L 2.644531 7.9375 L 2.644531 8.820312 L 1.765625 8.820312 Z M 1.765625 7.9375 "/>
<path style=" stroke:none;fill-rule:nonzero;fill:rgb(100%,100%,100%);fill-opacity:1;" d="M 2.644531 7.9375 L 3.527344 7.9375 L 3.527344 8.820312 L 2.644531 8.820312 Z M 2.644531 7.9375 "/>
<path style=" stroke:none;fill-rule:nonzero;fill:rgb(100%,100%,100%);fill-opacity:1;" d="M 3.527344 7.9375 L 4.410156 7.9375 L 4.410156 8.820312 L 3.527344 8.820312 Z M 3.527344 7.9375 "/>
<path style=" stroke:none;fill-rule:nonzero;fill:rgb(100%,100%,100%);fill-opacity:1;" d="M 4.410156 7.9375 L 5.292969 7.9375 L 5.292969 8.820312 L 4.410156 8.820312 Z M 4.410156 7.9375 "/>
<path style=" stroke:none;fill-rule:nonzero;fill:rgb(100%,100%,100%);fill-opacity:1;" d="M 5.292969 8.820312 L 6.171875 8.820312 L 6.171875 9.699219 L 5.292969 9.699219 Z M 5.292969 8.820312 "/>
<path style=" stroke:none;fill-rule:nonzero;fill:rgb(100%,100%,100%);fill-opacity:1;" d="M 6.171875 8.820312 L 7.054688 8.820312 L 7.054688 9.699219 L 6.171875 9.699219 Z M 6.171875 8.820312 "/>
<path style=" stroke:none;fill-rule:nonzero;fill:rgb(100%,100%,100%);fill-opacity:1;" d="M 7.9375 7.9375 L 8.820312 7.9375 L 8.820312 8.820312 L 7.9375 8.820312 Z M 7.9375 7.9375 "/>
<path style=" stroke:none;fill-rule:nonzero;fill:rgb(100%,100%,100%);fill-opacity:1;" d="M 7.054688 7.9375 L 7.9375 7.9375 L 7.9375 8.820312 L 7.054688 8.820312 Z M 7.054688 7.9375 "/>
<path style=" stroke:none;fill-rule:nonzero;fill:rgb(100%,100%,100%);fill-opacity:1;" d="M 8.820312 7.9375 L 9.699219 7.9375 L 9.699219 8.820312 L 8.820312 8.820312 Z M 8.820312 7.9375 "/>
<path style=" stroke:none;fill-rule:nonzero;fill:rgb(100%,100%,100%);fill-opacity:1;" d="M 9.699219 7.9375 L 10.582031 7.9375 L 10.582031 8.820312 L 9.699219 8.820312 Z M 9.699219 7.9375 "/>
</g>
</svg>
